<svg width="59" height="59" viewBox="0 0 59 59" fill="none" xmlns="http://www.w3.org/2000/svg">
<circle cx="29.5" cy="29.5" r="29.5" fill="#52FF00"/>
<path d="M19.2788 18.42C19.2788 19.3333 19.0355 20.02 18.5488 20.48C18.0622 20.9333 17.3688 21.16 16.4688 21.16C15.5488 21.16 14.8288 20.9433 14.3088 20.51C13.7955 20.07 13.5388 19.3733 13.5388 18.42V13.86H14.4888V18.42C14.4888 19.06 14.6588 19.5467 14.9988 19.88C15.3388 20.2067 15.8288 20.37 16.4688 20.37C17.0755 20.37 17.5355 20.2067 17.8488 19.88C18.1688 19.5467 18.3288 19.06 18.3288 18.42V13.86H19.2788V18.42ZM20.8856 15.83H21.7356V16.53H21.7556C21.8956 16.2433 22.1156 16.0367 22.4156 15.91C22.7156 15.7767 23.0456 15.71 23.4056 15.71C23.8056 15.71 24.1523 15.7833 24.4456 15.93C24.7456 16.0767 24.9923 16.2767 25.1856 16.53C25.3856 16.7767 25.5356 17.0633 25.6356 17.39C25.7356 17.7167 25.7856 18.0633 25.7856 18.43C25.7856 18.7967 25.7356 19.1433 25.6356 19.47C25.5423 19.7967 25.3956 20.0833 25.1956 20.33C25.0023 20.57 24.7556 20.76 24.4556 20.9C24.1623 21.04 23.819 21.11 23.4256 21.11C23.299 21.11 23.1556 21.0967 22.9956 21.07C22.8423 21.0433 22.689 21 22.5356 20.94C22.3823 20.88 22.2356 20.8 22.0956 20.7C21.9623 20.5933 21.849 20.4633 21.7556 20.31H21.7356V22.97H20.8856V15.83ZM24.8856 18.37C24.8856 18.13 24.8523 17.8967 24.7856 17.67C24.7256 17.4367 24.629 17.23 24.4956 17.05C24.369 16.87 24.2023 16.7267 23.9956 16.62C23.7956 16.5133 23.559 16.46 23.2856 16.46C22.999 16.46 22.7556 16.5167 22.5556 16.63C22.3556 16.7433 22.1923 16.8933 22.0656 17.08C21.939 17.26 21.8456 17.4667 21.7856 17.7C21.7323 17.9333 21.7056 18.17 21.7056 18.41C21.7056 18.6633 21.7356 18.91 21.7956 19.15C21.8556 19.3833 21.949 19.59 22.0756 19.77C22.209 19.95 22.379 20.0967 22.5856 20.21C22.7923 20.3167 23.0423 20.37 23.3356 20.37C23.629 20.37 23.8723 20.3133 24.0656 20.2C24.2656 20.0867 24.4256 19.9367 24.5456 19.75C24.6656 19.5633 24.7523 19.35 24.8056 19.11C24.859 18.87 24.8856 18.6233 24.8856 18.37ZM27.0334 13.86H27.8834V21H27.0334V13.86ZM30.0202 18.42C30.0202 18.7333 30.0602 19.0133 30.1402 19.26C30.2268 19.5 30.3435 19.7033 30.4902 19.87C30.6368 20.03 30.8068 20.1533 31.0002 20.24C31.2002 20.3267 31.4102 20.37 31.6302 20.37C31.8502 20.37 32.0568 20.3267 32.2502 20.24C32.4502 20.1533 32.6235 20.03 32.7702 19.87C32.9168 19.7033 33.0302 19.5 33.1102 19.26C33.1968 19.0133 33.2402 18.7333 33.2402 18.42C33.2402 18.1067 33.1968 17.83 33.1102 17.59C33.0302 17.3433 32.9168 17.1367 32.7702 16.97C32.6235 16.8033 32.4502 16.6767 32.2502 16.59C32.0568 16.5033 31.8502 16.46 31.6302 16.46C31.4102 16.46 31.2002 16.5033 31.0002 16.59C30.8068 16.6767 30.6368 16.8033 30.4902 16.97C30.3435 17.1367 30.2268 17.3433 30.1402 17.59C30.0602 17.83 30.0202 18.1067 30.0202 18.42ZM29.1202 18.42C29.1202 18.04 29.1735 17.6867 29.2802 17.36C29.3868 17.0267 29.5468 16.74 29.7602 16.5C29.9735 16.2533 30.2368 16.06 30.5502 15.92C30.8635 15.78 31.2235 15.71 31.6302 15.71C32.0435 15.71 32.4035 15.78 32.7102 15.92C33.0235 16.06 33.2868 16.2533 33.5002 16.5C33.7135 16.74 33.8735 17.0267 33.9802 17.36C34.0868 17.6867 34.1402 18.04 34.1402 18.42C34.1402 18.8 34.0868 19.1533 33.9802 19.48C33.8735 19.8067 33.7135 20.0933 33.5002 20.34C33.2868 20.58 33.0235 20.77 32.7102 20.91C32.4035 21.0433 32.0435 21.11 31.6302 21.11C31.2235 21.11 30.8635 21.0433 30.5502 20.91C30.2368 20.77 29.9735 20.58 29.7602 20.34C29.5468 20.0933 29.3868 19.8067 29.2802 19.48C29.1735 19.1533 29.1202 18.8 29.1202 18.42ZM39.9223 20.98C39.7757 21.0667 39.5723 21.11 39.3123 21.11C39.0923 21.11 38.9157 21.05 38.7823 20.93C38.6557 20.8033 38.5923 20.6 38.5923 20.32C38.359 20.6 38.0857 20.8033 37.7723 20.93C37.4657 21.05 37.1323 21.11 36.7723 21.11C36.539 21.11 36.3157 21.0833 36.1023 21.03C35.8957 20.9767 35.7157 20.8933 35.5623 20.78C35.409 20.6667 35.2857 20.52 35.1923 20.34C35.1057 20.1533 35.0623 19.93 35.0623 19.67C35.0623 19.3767 35.1123 19.1367 35.2123 18.95C35.3123 18.7633 35.4423 18.6133 35.6023 18.5C35.769 18.38 35.9557 18.29 36.1623 18.23C36.3757 18.17 36.5923 18.12 36.8123 18.08C37.0457 18.0333 37.2657 18 37.4723 17.98C37.6857 17.9533 37.8723 17.92 38.0323 17.88C38.1923 17.8333 38.319 17.77 38.4123 17.69C38.5057 17.6033 38.5523 17.48 38.5523 17.32C38.5523 17.1333 38.5157 16.9833 38.4423 16.87C38.3757 16.7567 38.2857 16.67 38.1723 16.61C38.0657 16.55 37.9423 16.51 37.8023 16.49C37.669 16.47 37.5357 16.46 37.4023 16.46C37.0423 16.46 36.7423 16.53 36.5023 16.67C36.2623 16.8033 36.1323 17.06 36.1123 17.44H35.2623C35.2757 17.12 35.3423 16.85 35.4623 16.63C35.5823 16.41 35.7423 16.2333 35.9423 16.1C36.1423 15.96 36.369 15.86 36.6223 15.8C36.8823 15.74 37.159 15.71 37.4523 15.71C37.6857 15.71 37.9157 15.7267 38.1423 15.76C38.3757 15.7933 38.5857 15.8633 38.7723 15.97C38.959 16.07 39.109 16.2133 39.2223 16.4C39.3357 16.5867 39.3923 16.83 39.3923 17.13V19.79C39.3923 19.99 39.4023 20.1367 39.4223 20.23C39.449 20.3233 39.529 20.37 39.6623 20.37C39.7357 20.37 39.8223 20.3533 39.9223 20.32V20.98ZM38.5423 18.33C38.4357 18.41 38.2957 18.47 38.1223 18.51C37.949 18.5433 37.7657 18.5733 37.5723 18.6C37.3857 18.62 37.1957 18.6467 37.0023 18.68C36.809 18.7067 36.6357 18.7533 36.4823 18.82C36.329 18.8867 36.2023 18.9833 36.1023 19.11C36.009 19.23 35.9623 19.3967 35.9623 19.61C35.9623 19.75 35.989 19.87 36.0423 19.97C36.1023 20.0633 36.1757 20.14 36.2623 20.2C36.3557 20.26 36.4623 20.3033 36.5823 20.33C36.7023 20.3567 36.829 20.37 36.9623 20.37C37.2423 20.37 37.4823 20.3333 37.6823 20.26C37.8823 20.18 38.0457 20.0833 38.1723 19.97C38.299 19.85 38.3923 19.7233 38.4523 19.59C38.5123 19.45 38.5423 19.32 38.5423 19.2V18.33ZM41.5334 18.46C41.5334 18.7 41.5634 18.9367 41.6234 19.17C41.6901 19.3967 41.7868 19.6 41.9134 19.78C42.0468 19.96 42.2134 20.1033 42.4134 20.21C42.6201 20.3167 42.8601 20.37 43.1334 20.37C43.4201 20.37 43.6634 20.3133 43.8634 20.2C44.0634 20.0867 44.2268 19.94 44.3534 19.76C44.4801 19.5733 44.5701 19.3633 44.6234 19.13C44.6834 18.8967 44.7134 18.66 44.7134 18.42C44.7134 18.1667 44.6834 17.9233 44.6234 17.69C44.5634 17.45 44.4668 17.24 44.3334 17.06C44.2068 16.88 44.0401 16.7367 43.8334 16.63C43.6268 16.5167 43.3768 16.46 43.0834 16.46C42.7968 16.46 42.5534 16.5167 42.3534 16.63C42.1534 16.7433 41.9934 16.8933 41.8734 17.08C41.7534 17.2667 41.6668 17.48 41.6134 17.72C41.5601 17.96 41.5334 18.2067 41.5334 18.46ZM45.5334 21H44.6834V20.3H44.6634C44.5234 20.5867 44.3034 20.7933 44.0034 20.92C43.7034 21.0467 43.3734 21.11 43.0134 21.11C42.6134 21.11 42.2634 21.0367 41.9634 20.89C41.6701 20.7433 41.4234 20.5467 41.2234 20.3C41.0301 20.0533 40.8834 19.7667 40.7834 19.44C40.6834 19.1133 40.6334 18.7667 40.6334 18.4C40.6334 18.0333 40.6801 17.6867 40.7734 17.36C40.8734 17.0333 41.0201 16.75 41.2134 16.51C41.4134 16.2633 41.6601 16.07 41.9534 15.93C42.2534 15.7833 42.6001 15.71 42.9934 15.71C43.1268 15.71 43.2701 15.7233 43.4234 15.75C43.5768 15.7767 43.7301 15.8233 43.8834 15.89C44.0368 15.95 44.1801 16.0333 44.3134 16.14C44.4534 16.24 44.5701 16.3667 44.6634 16.52H44.6834V13.86H45.5334V21ZM25.4017 30.42C25.4017 31.3333 25.1583 32.02 24.6717 32.48C24.185 32.9333 23.4917 33.16 22.5917 33.16C21.6717 33.16 20.9517 32.9433 20.4317 32.51C19.9183 32.07 19.6617 31.3733 19.6617 30.42V25.86H20.6117V30.42C20.6117 31.06 20.7817 31.5467 21.1217 31.88C21.4617 32.2067 21.9517 32.37 22.5917 32.37C23.1983 32.37 23.6583 32.2067 23.9717 31.88C24.2917 31.5467 24.4517 31.06 24.4517 30.42V25.86H25.4017V30.42ZM27.1185 25.86H31.8085V26.66H28.0685V28.93H31.3485V29.73H28.0685V33H27.1185V25.86ZM33.6107 29.43C33.6107 29.79 33.6573 30.1467 33.7507 30.5C33.844 30.8467 33.9907 31.16 34.1907 31.44C34.3907 31.72 34.6473 31.9467 34.9607 32.12C35.274 32.2867 35.6473 32.37 36.0807 32.37C36.514 32.37 36.8873 32.2867 37.2007 32.12C37.514 31.9467 37.7707 31.72 37.9707 31.44C38.1707 31.16 38.3173 30.8467 38.4107 30.5C38.504 30.1467 38.5507 29.79 38.5507 29.43C38.5507 29.07 38.504 28.7167 38.4107 28.37C38.3173 28.0167 38.1707 27.7 37.9707 27.42C37.7707 27.14 37.514 26.9167 37.2007 26.75C36.8873 26.5767 36.514 26.49 36.0807 26.49C35.6473 26.49 35.274 26.5767 34.9607 26.75C34.6473 26.9167 34.3907 27.14 34.1907 27.42C33.9907 27.7 33.844 28.0167 33.7507 28.37C33.6573 28.7167 33.6107 29.07 33.6107 29.43ZM32.6607 29.43C32.6607 28.9433 32.7307 28.4767 32.8707 28.03C33.0173 27.5767 33.234 27.1767 33.5207 26.83C33.8073 26.4833 34.164 26.2067 34.5907 26C35.0173 25.7933 35.514 25.69 36.0807 25.69C36.6473 25.69 37.144 25.7933 37.5707 26C37.9973 26.2067 38.354 26.4833 38.6407 26.83C38.9273 27.1767 39.1407 27.5767 39.2807 28.03C39.4273 28.4767 39.5007 28.9433 39.5007 29.43C39.5007 29.9167 39.4273 30.3867 39.2807 30.84C39.1407 31.2867 38.9273 31.6833 38.6407 32.03C38.354 32.3767 37.9973 32.6533 37.5707 32.86C37.144 33.06 36.6473 33.16 36.0807 33.16C35.514 33.16 35.0173 33.06 34.5907 32.86C34.164 32.6533 33.8073 32.3767 33.5207 32.03C33.234 31.6833 33.0173 31.2867 32.8707 30.84C32.7307 30.3867 32.6607 29.9167 32.6607 29.43ZM16.7085 39.83H17.5585V40.53H17.5785C17.7185 40.2433 17.9385 40.0367 18.2385 39.91C18.5385 39.7767 18.8685 39.71 19.2285 39.71C19.6285 39.71 19.9751 39.7833 20.2685 39.93C20.5685 40.0767 20.8151 40.2767 21.0085 40.53C21.2085 40.7767 21.3585 41.0633 21.4585 41.39C21.5585 41.7167 21.6085 42.0633 21.6085 42.43C21.6085 42.7967 21.5585 43.1433 21.4585 43.47C21.3651 43.7967 21.2185 44.0833 21.0185 44.33C20.8251 44.57 20.5785 44.76 20.2785 44.9C19.9851 45.04 19.6418 45.11 19.2485 45.11C19.1218 45.11 18.9785 45.0967 18.8185 45.07C18.6651 45.0433 18.5118 45 18.3585 44.94C18.2051 44.88 18.0585 44.8 17.9185 44.7C17.7851 44.5933 17.6718 44.4633 17.5785 44.31H17.5585V46.97H16.7085V39.83ZM20.7085 42.37C20.7085 42.13 20.6751 41.8967 20.6085 41.67C20.5485 41.4367 20.4518 41.23 20.3185 41.05C20.1918 40.87 20.0251 40.7267 19.8185 40.62C19.6185 40.5133 19.3818 40.46 19.1085 40.46C18.8218 40.46 18.5785 40.5167 18.3785 40.63C18.1785 40.7433 18.0151 40.8933 17.8885 41.08C17.7618 41.26 17.6685 41.4667 17.6085 41.7C17.5551 41.9333 17.5285 42.17 17.5285 42.41C17.5285 42.6633 17.5585 42.91 17.6185 43.15C17.6785 43.3833 17.7718 43.59 17.8985 43.77C18.0318 43.95 18.2018 44.0967 18.4085 44.21C18.6151 44.3167 18.8651 44.37 19.1585 44.37C19.4518 44.37 19.6951 44.3133 19.8885 44.2C20.0885 44.0867 20.2485 43.9367 20.3685 43.75C20.4885 43.5633 20.5751 43.35 20.6285 43.11C20.6818 42.87 20.7085 42.6233 20.7085 42.37ZM22.8062 37.86H23.6562V40.59H23.6762C23.7429 40.43 23.8362 40.2967 23.9562 40.19C24.0762 40.0767 24.2095 39.9867 24.3562 39.92C24.5095 39.8467 24.6662 39.7933 24.8262 39.76C24.9929 39.7267 25.1529 39.71 25.3062 39.71C25.6462 39.71 25.9295 39.7567 26.1562 39.85C26.3829 39.9433 26.5662 40.0733 26.7062 40.24C26.8462 40.4067 26.9429 40.6067 26.9962 40.84C27.0562 41.0667 27.0862 41.32 27.0862 41.6V45H26.2362V41.5C26.2362 41.18 26.1429 40.9267 25.9562 40.74C25.7695 40.5533 25.5129 40.46 25.1862 40.46C24.9262 40.46 24.6995 40.5 24.5062 40.58C24.3195 40.66 24.1629 40.7733 24.0362 40.92C23.9095 41.0667 23.8129 41.24 23.7462 41.44C23.6862 41.6333 23.6562 41.8467 23.6562 42.08V45H22.8062V37.86ZM29.1829 42.42C29.1829 42.7333 29.2229 43.0133 29.3029 43.26C29.3895 43.5 29.5062 43.7033 29.6529 43.87C29.7995 44.03 29.9695 44.1533 30.1629 44.24C30.3629 44.3267 30.5729 44.37 30.7929 44.37C31.0129 44.37 31.2195 44.3267 31.4129 44.24C31.6129 44.1533 31.7862 44.03 31.9329 43.87C32.0795 43.7033 32.1929 43.5 32.2729 43.26C32.3595 43.0133 32.4029 42.7333 32.4029 42.42C32.4029 42.1067 32.3595 41.83 32.2729 41.59C32.1929 41.3433 32.0795 41.1367 31.9329 40.97C31.7862 40.8033 31.6129 40.6767 31.4129 40.59C31.2195 40.5033 31.0129 40.46 30.7929 40.46C30.5729 40.46 30.3629 40.5033 30.1629 40.59C29.9695 40.6767 29.7995 40.8033 29.6529 40.97C29.5062 41.1367 29.3895 41.3433 29.3029 41.59C29.2229 41.83 29.1829 42.1067 29.1829 42.42ZM28.2829 42.42C28.2829 42.04 28.3362 41.6867 28.4429 41.36C28.5495 41.0267 28.7095 40.74 28.9229 40.5C29.1362 40.2533 29.3995 40.06 29.7129 39.92C30.0262 39.78 30.3862 39.71 30.7929 39.71C31.2062 39.71 31.5662 39.78 31.8729 39.92C32.1862 40.06 32.4495 40.2533 32.6629 40.5C32.8762 40.74 33.0362 41.0267 33.1429 41.36C33.2495 41.6867 33.3029 42.04 33.3029 42.42C33.3029 42.8 33.2495 43.1533 33.1429 43.48C33.0362 43.8067 32.8762 44.0933 32.6629 44.34C32.4495 44.58 32.1862 44.77 31.8729 44.91C31.5662 45.0433 31.2062 45.11 30.7929 45.11C30.3862 45.11 30.0262 45.0433 29.7129 44.91C29.3995 44.77 29.1362 44.58 28.9229 44.34C28.7095 44.0933 28.5495 43.8067 28.4429 43.48C28.3362 43.1533 28.2829 42.8 28.2829 42.42ZM35.685 39.83H36.715V40.58H35.685V43.79C35.685 43.89 35.6917 43.97 35.705 44.03C35.725 44.09 35.7584 44.1367 35.805 44.17C35.8517 44.2033 35.915 44.2267 35.995 44.24C36.0817 44.2467 36.1917 44.25 36.325 44.25H36.715V45H36.065C35.845 45 35.655 44.9867 35.495 44.96C35.3417 44.9267 35.215 44.87 35.115 44.79C35.0217 44.71 34.9517 44.5967 34.905 44.45C34.8584 44.3033 34.835 44.11 34.835 43.87V40.58H33.955V39.83H34.835V38.28H35.685V39.83ZM38.4793 42.42C38.4793 42.7333 38.5193 43.0133 38.5993 43.26C38.686 43.5 38.8027 43.7033 38.9493 43.87C39.096 44.03 39.266 44.1533 39.4593 44.24C39.6593 44.3267 39.8693 44.37 40.0893 44.37C40.3093 44.37 40.516 44.3267 40.7093 44.24C40.9093 44.1533 41.0827 44.03 41.2293 43.87C41.376 43.7033 41.4893 43.5 41.5693 43.26C41.656 43.0133 41.6993 42.7333 41.6993 42.42C41.6993 42.1067 41.656 41.83 41.5693 41.59C41.4893 41.3433 41.376 41.1367 41.2293 40.97C41.0827 40.8033 40.9093 40.6767 40.7093 40.59C40.516 40.5033 40.3093 40.46 40.0893 40.46C39.8693 40.46 39.6593 40.5033 39.4593 40.59C39.266 40.6767 39.096 40.8033 38.9493 40.97C38.8027 41.1367 38.686 41.3433 38.5993 41.59C38.5193 41.83 38.4793 42.1067 38.4793 42.42ZM37.5793 42.42C37.5793 42.04 37.6327 41.6867 37.7393 41.36C37.846 41.0267 38.006 40.74 38.2193 40.5C38.4327 40.2533 38.696 40.06 39.0093 39.92C39.3227 39.78 39.6827 39.71 40.0893 39.71C40.5027 39.71 40.8627 39.78 41.1693 39.92C41.4827 40.06 41.746 40.2533 41.9593 40.5C42.1727 40.74 42.3327 41.0267 42.4393 41.36C42.546 41.6867 42.5993 42.04 42.5993 42.42C42.5993 42.8 42.546 43.1533 42.4393 43.48C42.3327 43.8067 42.1727 44.0933 41.9593 44.34C41.746 44.58 41.4827 44.77 41.1693 44.91C40.8627 45.0433 40.5027 45.11 40.0893 45.11C39.6827 45.11 39.3227 45.0433 39.0093 44.91C38.696 44.77 38.4327 44.58 38.2193 44.34C38.006 44.0933 37.846 43.8067 37.7393 43.48C37.6327 43.1533 37.5793 42.8 37.5793 42.42Z" fill="black"/>
</svg>
